<svg width="45" height="45" viewBox="0 0 45 45" fill="none" xmlns="http://www.w3.org/2000/svg">
<path d="M9.375 19.3125C9.375 17.7225 9.375 16.5844 9.45 15.6937C9.52125 14.8144 9.65625 14.2575 9.885 13.8094L8.21625 12.9581C7.83 13.7137 7.66125 14.5462 7.57875 15.5419C7.5 16.5262 7.5 17.7544 7.5 19.3125H9.375ZM9.375 21.5625V19.3125H7.5V21.5625H9.375ZM7.5 21.5625V30.9375H9.375V21.5625H7.5ZM7.5 30.9375V34.5262H9.375V30.9375H7.5ZM7.5 34.5262C7.5 36.1125 9.41813 36.9075 10.5413 35.7844L9.21562 34.4587C9.23176 34.448 9.24947 34.4397 9.26812 34.4344L9.31687 34.4381C9.33244 34.447 9.34566 34.4594 9.35545 34.4744C9.36523 34.4894 9.37129 34.5066 9.37313 34.5244L7.5 34.5262ZM10.5413 35.7844L14.1769 32.1488L12.8513 30.8231L9.21375 34.4606L10.5413 35.7844ZM27.5625 30H14.8387V31.875H27.5625V30ZM33.0656 29.49C32.6175 29.7188 32.0606 29.8538 31.1812 29.9269C30.2887 30 29.1525 30 27.5625 30V31.875C29.1225 31.875 30.3488 31.875 31.3331 31.7944C32.3288 31.7138 33.1613 31.545 33.9169 31.1606L33.0656 29.49ZM35.1131 27.4406C34.6638 28.3221 33.9471 29.0407 33.0656 29.49L33.9169 31.1606C35.1521 30.5314 36.1564 29.5271 36.7856 28.2919L35.1131 27.4406ZM35.625 21.9375C35.625 23.5275 35.625 24.6656 35.55 25.5562C35.4787 26.4356 35.3437 26.9925 35.1131 27.4406L36.7856 28.2919C37.17 27.5362 37.3388 26.7038 37.4194 25.7081C37.5 24.7238 37.5 23.4956 37.5 21.9375H35.625ZM35.625 19.3125V21.9375H37.5V19.3125H35.625ZM35.1131 13.8094C35.3419 14.2575 35.4788 14.8144 35.5519 15.6937C35.625 16.5844 35.625 17.7225 35.625 19.3125H37.5C37.5 17.7525 37.5 16.5262 37.4194 15.5419C37.3388 14.5462 37.17 13.7137 36.7856 12.9581L35.1131 13.8094ZM33.0656 11.76C33.9474 12.2098 34.6641 12.9272 35.1131 13.8094L36.7856 12.9581C36.1564 11.7229 35.1521 10.7186 33.9169 10.0894L33.0656 11.76ZM27.5625 11.25C29.1525 11.25 30.2887 11.25 31.1812 11.325C32.0606 11.3963 32.6175 11.5312 33.0656 11.76L33.9169 10.0894C33.1613 9.70313 32.3288 9.53625 31.3331 9.45375C30.3488 9.375 29.1206 9.375 27.5625 9.375V11.25ZM17.4375 11.25H27.5625V9.375H17.4375V11.25ZM11.9344 11.76C12.3825 11.5331 12.9394 11.3963 13.8187 11.3231C14.7094 11.25 15.8475 11.25 17.4375 11.25V9.375C15.8775 9.375 14.6512 9.375 13.6669 9.45563C12.6712 9.53625 11.8387 9.705 11.0831 10.0894L11.9344 11.76ZM9.885 13.8094C10.3345 12.9269 11.0519 12.2095 11.9344 11.76L11.0831 10.0894C9.84816 10.7181 8.84581 11.7236 8.21625 12.9581L9.885 13.8094ZM14.1769 32.1488C14.3526 31.9735 14.5906 31.8751 14.8387 31.875V30C14.0931 30.0007 13.3782 30.2974 12.8513 30.825L14.1769 32.1488Z" fill="#2F2F2F"/>
<path d="M15.9375 17.8125H29.0625M15.9375 23.4375H25.3125" stroke="#2F2F2F" stroke-width="1.875" stroke-linecap="round" stroke-linejoin="round"/>
</svg>
