<svg width="377" height="377" viewBox="0 0 377 377" fill="none" xmlns="http://www.w3.org/2000/svg">
<path d="M78.3828 329.519C69.7608 329.519 62.3823 326.452 56.2476 320.317C50.1128 314.182 47.0402 306.799 47.0298 298.166V78.6949C47.0298 70.0728 50.1024 62.6943 56.2476 56.5596C62.3928 50.4248 69.7712 47.3522 78.3828 47.3418H297.854C306.476 47.3418 313.86 50.4144 320.005 56.5596C326.15 62.7048 329.218 70.0832 329.207 78.6949V298.166C329.207 306.788 326.14 314.172 320.005 320.317C313.87 326.462 306.487 329.53 297.854 329.519H78.3828ZM78.3828 298.166H297.854V78.6949H78.3828V298.166ZM94.0594 266.813H282.178L223.391 188.431L176.361 251.137L141.089 204.107L94.0594 266.813Z" fill="#2F2F2F"/>
</svg>
