<svg width="45" height="45" viewBox="0 0 45 45" fill="none" xmlns="http://www.w3.org/2000/svg">
<path fill-rule="evenodd" clip-rule="evenodd" d="M36.1592 23.7094C37.4849 22.3627 38.2214 20.5446 38.2066 18.6549C38.1919 16.7653 37.427 14.9589 36.0804 13.6331C35.4136 12.9767 34.6241 12.458 33.7568 12.1067C32.8896 11.7554 31.9616 11.5783 31.026 11.5856C29.1363 11.6004 27.3299 12.3652 26.0042 13.7119C25.6442 14.0719 25.1867 14.5137 24.6317 15.0375L23.0885 16.4906L21.5454 15.0375C20.9892 14.5125 20.531 14.0706 20.171 13.7119C18.8348 12.3757 17.0226 11.625 15.1329 11.625C13.2432 11.625 11.431 12.3757 10.0948 13.7119C7.34228 16.4662 7.31041 20.9194 9.99353 23.6869L23.0885 36.7819L36.1592 23.7094ZM8.50291 12.1219C9.37349 11.2511 10.4071 10.5603 11.5447 10.089C12.6823 9.61769 13.9016 9.37512 15.1329 9.37512C16.3643 9.37512 17.5835 9.61769 18.7211 10.089C19.8587 10.5603 20.8923 11.2511 21.7629 12.1219C22.1042 12.4644 22.546 12.8906 23.0885 13.4006C23.6285 12.8906 24.0704 12.4637 24.4142 12.12C26.1589 10.3484 28.5359 9.3425 31.0223 9.32352C33.5086 9.30453 35.9007 10.274 37.6723 12.0187C39.4438 13.7634 40.4498 16.1405 40.4688 18.6268C40.4877 21.1132 39.5182 23.5053 37.7735 25.2769L24.4142 38.6381C24.0625 38.9896 23.5857 39.1871 23.0885 39.1871C22.5914 39.1871 22.1145 38.9896 21.7629 38.6381L8.39978 25.275C6.68611 23.5076 5.73636 21.1371 5.75566 18.6754C5.77495 16.2137 6.76174 13.8584 8.50291 12.1181V12.1219Z" fill="#2F2F2F"/>
</svg>
