<svg width="62" height="62" viewBox="0 0 62 62" fill="none" xmlns="http://www.w3.org/2000/svg">
<path d="M23.2498 30.354C22.3934 30.354 21.5721 30.6942 20.9665 31.2998C20.3609 31.9054 20.0207 32.7267 20.0207 33.5832C20.0207 34.4396 20.3609 35.261 20.9665 35.8665C21.5721 36.4721 22.3934 36.8123 23.2498 36.8123C23.6739 36.8123 24.0938 36.7288 24.4856 36.5665C24.8774 36.4043 25.2333 36.1664 25.5332 35.8665C25.8331 35.5667 26.0709 35.2107 26.2332 34.8189C26.3955 34.4271 26.479 34.0072 26.479 33.5832C26.479 33.1591 26.3955 32.7392 26.2332 32.3474C26.0709 31.9556 25.8331 31.5997 25.5332 31.2998C25.2333 31 24.8774 30.7621 24.4856 30.5998C24.0938 30.4375 23.6739 30.354 23.2498 30.354ZM38.7498 30.354C37.8934 30.354 37.0721 30.6942 36.4665 31.2998C35.8609 31.9054 35.5207 32.7267 35.5207 33.5832C35.5207 34.4396 35.8609 35.261 36.4665 35.8665C37.0721 36.4721 37.8934 36.8123 38.7498 36.8123C39.6063 36.8123 40.4276 36.4721 41.0332 35.8665C41.6388 35.261 41.979 34.4396 41.979 33.5832C41.979 32.7267 41.6388 31.9054 41.0332 31.2998C40.4276 30.6942 39.6063 30.354 38.7498 30.354ZM30.9998 5.1665C27.6074 5.1665 24.2481 5.8347 21.1138 7.13295C17.9796 8.4312 15.1318 10.3341 12.7329 12.7329C7.88822 17.5776 5.1665 24.1484 5.1665 30.9998C5.1665 37.8513 7.88822 44.4221 12.7329 49.2668C15.1318 51.6656 17.9796 53.5685 21.1138 54.8667C24.2481 56.165 27.6074 56.8332 30.9998 56.8332C37.8513 56.8332 44.4221 54.1115 49.2668 49.2668C54.1115 44.4221 56.8332 37.8513 56.8332 30.9998C56.8332 27.6074 56.165 24.2481 54.8667 21.1138C53.5685 17.9796 51.6656 15.1318 49.2668 12.7329C46.8679 10.3341 44.0201 8.4312 40.8858 7.13295C37.7516 5.8347 34.3923 5.1665 30.9998 5.1665ZM30.9998 51.6665C19.6073 51.6665 10.3332 42.3923 10.3332 30.9998C10.3332 30.2507 10.3332 29.5015 10.4623 28.7782C16.559 26.0657 21.3898 21.0798 23.9215 14.9057C26.874 19.0979 31.0105 22.3134 35.8015 24.1405C40.5925 25.9676 45.8198 26.3231 50.814 25.1615C51.3565 26.9957 51.6665 28.959 51.6665 30.9998C51.6665 42.3923 42.3923 51.6665 30.9998 51.6665Z" fill="#2F2F2F"/>
</svg>
