<svg width="52" height="52" viewBox="0 0 52 52" fill="none" xmlns="http://www.w3.org/2000/svg">
<path d="M12.9998 41.1668H19.4998V30.3335C19.4998 29.7196 19.7078 29.2054 20.1238 28.7908C20.5398 28.3763 21.0541 28.1683 21.6665 28.1668H30.3332C30.9471 28.1668 31.462 28.3748 31.878 28.7908C32.294 29.2068 32.5013 29.7211 32.4998 30.3335V41.1668H38.9998V21.6668L25.9998 11.9168L12.9998 21.6668V41.1668ZM8.6665 41.1668V21.6668C8.6665 20.9807 8.82034 20.3307 9.128 19.7168C9.43567 19.1029 9.85962 18.5974 10.3998 18.2002L23.3998 8.45016C24.1582 7.87239 25.0248 7.5835 25.9998 7.5835C26.9748 7.5835 27.8415 7.87239 28.5998 8.45016L41.5998 18.2002C42.1415 18.5974 42.5662 19.1029 42.8738 19.7168C43.1815 20.3307 43.3346 20.9807 43.3332 21.6668V41.1668C43.3332 42.3585 42.9085 43.379 42.0592 44.2283C41.2098 45.0777 40.1901 45.5016 38.9998 45.5002H30.3332C29.7193 45.5002 29.2051 45.2922 28.7905 44.8762C28.3759 44.4602 28.1679 43.9459 28.1665 43.3335V32.5002H23.8332V43.3335C23.8332 43.9474 23.6252 44.4623 23.2092 44.8783C22.7932 45.2943 22.2789 45.5016 21.6665 45.5002H12.9998C11.8082 45.5002 10.7884 45.0762 9.9405 44.2283C9.09261 43.3804 8.66795 42.3599 8.6665 41.1668Z" fill="#2F2F2F"/>
</svg>
