<svg width="45" height="45" viewBox="0 0 45 45" fill="none" xmlns="http://www.w3.org/2000/svg">
<path d="M20.3904 22.5C20.3904 23.0594 20.6126 23.596 21.0082 23.9916C21.4038 24.3871 21.9403 24.6094 22.4998 24.6094C23.0592 24.6094 23.5957 24.3871 23.9913 23.9916C24.3869 23.596 24.6091 23.0594 24.6091 22.5C24.6091 21.9406 24.3869 21.404 23.9913 21.0084C23.5957 20.6129 23.0592 20.3906 22.4998 20.3906C21.9403 20.3906 21.4038 20.6129 21.0082 21.0084C20.6126 21.404 20.3904 21.9406 20.3904 22.5ZM29.1794 22.5C29.1794 23.0594 29.4017 23.596 29.7973 23.9916C30.1929 24.3871 30.7294 24.6094 31.2888 24.6094C31.8483 24.6094 32.3848 24.3871 32.7804 23.9916C33.176 23.596 33.3982 23.0594 33.3982 22.5C33.3982 21.9406 33.176 21.404 32.7804 21.0084C32.3848 20.6129 31.8483 20.3906 31.2888 20.3906C30.7294 20.3906 30.1929 20.6129 29.7973 21.0084C29.4017 21.404 29.1794 21.9406 29.1794 22.5ZM11.6013 22.5C11.6013 23.0594 11.8236 23.596 12.2191 23.9916C12.6147 24.3871 13.1513 24.6094 13.7107 24.6094C14.2701 24.6094 14.8067 24.3871 15.2023 23.9916C15.5978 23.596 15.8201 23.0594 15.8201 22.5C15.8201 21.9406 15.5978 21.404 15.2023 21.0084C14.8067 20.6129 14.2701 20.3906 13.7107 20.3906C13.1513 20.3906 12.6147 20.6129 12.2191 21.0084C11.8236 21.404 11.6013 21.9406 11.6013 22.5ZM40.658 14.8711C39.6648 12.5112 38.241 10.3931 36.426 8.57373C34.6238 6.76497 32.4843 5.3272 30.1287 4.3418C27.7117 3.32666 25.1453 2.8125 22.4998 2.8125H22.4119C19.7488 2.82568 17.1692 3.35303 14.7434 4.39014C12.408 5.38564 10.2886 6.82597 8.50318 8.63086C6.70582 10.4458 5.29517 12.5552 4.31959 14.9063C3.30884 17.3408 2.79908 19.9292 2.81226 22.5923C2.82717 25.6442 3.54919 28.6511 4.92164 31.377V38.0566C4.92164 38.5928 5.13461 39.1069 5.51372 39.486C5.89282 39.8651 6.40699 40.0781 6.94312 40.0781H13.6272C16.3531 41.4506 19.36 42.1726 22.4119 42.1875H22.5042C25.1365 42.1875 27.6897 41.6777 30.0935 40.6802C32.4372 39.7066 34.5687 38.2855 36.3689 36.4966C38.1838 34.6992 39.6121 32.5986 40.6096 30.2563C41.6467 27.8306 42.1741 25.251 42.1873 22.5879C42.2004 19.9116 41.6819 17.3145 40.658 14.8711ZM34.0178 34.1191C30.9373 37.1689 26.8503 38.8477 22.4998 38.8477H22.4251C19.7752 38.8345 17.1428 38.1753 14.8181 36.936L14.449 36.7383H8.26148V30.5508L8.06373 30.1816C6.82447 27.8569 6.16529 25.2246 6.1521 22.5747C6.13453 18.1934 7.80884 14.0801 10.8806 10.9819C13.948 7.88379 18.0481 6.16992 22.4294 6.15234H22.5042C24.7014 6.15234 26.8328 6.57861 28.8411 7.42236C30.801 8.24414 32.5588 9.42627 34.0706 10.938C35.5779 12.4453 36.7644 14.2075 37.5862 16.1675C38.4387 18.1978 38.865 20.3511 38.8562 22.5747C38.8298 26.9517 37.1116 31.0518 34.0178 34.1191Z" fill="#2F2F2F"/>
</svg>
