<svg width="45" height="45" viewBox="0 0 45 45" fill="none" xmlns="http://www.w3.org/2000/svg">
<path d="M11.8799 23.8701L23.8139 11.9361C24.3886 11.3616 25.0708 10.9058 25.8217 10.5949C26.5725 10.2841 27.3772 10.1241 28.1898 10.1242C29.0025 10.1243 29.8071 10.2845 30.5579 10.5956C31.3086 10.9066 31.9907 11.3625 32.5653 11.9372C33.1398 12.5119 33.5956 13.1942 33.9064 13.945C34.2173 14.6958 34.3773 15.5005 34.3772 16.3132C34.3771 17.1258 34.2169 17.9305 33.9058 18.6812C33.5947 19.4319 33.1388 20.1141 32.5641 20.6886L18.2451 35.0076C17.7173 35.5354 17.0015 35.832 16.255 35.832C15.5086 35.832 14.7927 35.5354 14.2649 35.0076C13.7371 34.4798 13.4406 33.7639 13.4406 33.0175C13.4406 32.271 13.7371 31.5552 14.2649 31.0274L26.9931 18.2991C27.2912 17.9792 27.4535 17.5561 27.4458 17.1189C27.4381 16.6818 27.261 16.2646 26.9518 15.9555C26.6426 15.6463 26.2255 15.4692 25.7883 15.4615C25.3511 15.4538 24.928 15.616 24.6081 15.9141L11.8799 28.6424C10.7192 29.803 10.0672 31.3772 10.0672 33.0186C10.0672 34.66 10.7192 36.2342 11.8799 37.3949C13.0406 38.5555 14.6147 39.2076 16.2561 39.2076C17.8976 39.2076 19.4717 38.5555 20.6324 37.3949L34.9491 23.0736C36.708 21.2733 37.6861 18.8522 37.6715 16.3354C37.6568 13.8186 36.6505 11.4091 34.8709 9.6294C33.0912 7.84973 30.6816 6.84343 28.1648 6.82878C25.648 6.81412 23.2269 7.79228 21.4266 9.55111L9.4949 21.4829C9.19682 21.8028 9.03454 22.2259 9.04226 22.663C9.04997 23.1002 9.22707 23.5173 9.53625 23.8265C9.84543 24.1357 10.2625 24.3128 10.6997 24.3205C11.1369 24.3282 11.56 24.1659 11.8799 23.8679" fill="#2F2F2F"/>
</svg>
