<svg width="45" height="45" viewBox="0 0 45 45" fill="none" xmlns="http://www.w3.org/2000/svg">
<path fill-rule="evenodd" clip-rule="evenodd" d="M20.2471 5.625H24.7499C24.8991 5.625 25.0422 5.68426 25.1477 5.78975C25.2532 5.89524 25.3124 6.03832 25.3124 6.1875C25.3124 11.2725 30.8193 14.4534 35.2237 11.9081C35.3522 11.8354 35.5042 11.8162 35.6468 11.8546C35.7894 11.8931 35.9112 11.986 35.9859 12.1134L38.2415 16.0172C38.3151 16.146 38.3348 16.2987 38.2963 16.442C38.2579 16.5852 38.1644 16.7075 38.0362 16.7822C33.6318 19.3247 33.6318 25.6809 38.0362 28.2263C38.1636 28.3009 38.2566 28.4227 38.295 28.5653C38.3334 28.7079 38.3142 28.8599 38.2415 28.9884L35.9859 32.8922C35.9112 33.0196 35.7894 33.1126 35.6468 33.151C35.5042 33.1894 35.3522 33.1702 35.2237 33.0975C30.8193 30.5522 25.3124 33.7303 25.3124 38.8125C25.3124 38.9612 25.2536 39.1039 25.1487 39.2093C25.0438 39.3147 24.9014 39.3743 24.7527 39.375H20.2499C20.1007 39.375 19.9577 39.3157 19.8522 39.2103C19.7467 39.1048 19.6874 38.9617 19.6874 38.8125C19.6874 33.7275 14.1806 30.5494 9.77618 33.0919C9.64737 33.1654 9.4947 33.1851 9.35142 33.1467C9.20814 33.1082 9.08586 33.0147 9.01118 32.8866L6.76118 28.9828C6.68826 28.8546 6.66862 28.7029 6.7065 28.5603C6.74437 28.4177 6.83673 28.2957 6.96368 28.2206C11.3681 25.6753 11.3681 19.3191 6.96368 16.7738C6.83701 16.6991 6.74459 16.5779 6.70621 16.4359C6.66784 16.294 6.68656 16.1427 6.75837 16.0144L9.01118 12.1078C9.08632 11.9801 9.20882 11.8872 9.35205 11.8493C9.49529 11.8114 9.6477 11.8315 9.77618 11.9053C14.1806 14.4506 19.6874 11.2697 19.6874 6.18469C19.6874 5.87531 19.9377 5.625 20.2471 5.625ZM15.4687 6.1875C15.4687 3.54375 17.6062 1.40625 20.2471 1.40625H24.7499C27.3937 1.40625 29.5312 3.54375 29.5312 6.1875C29.532 6.60646 29.6429 7.01785 29.8528 7.38044C30.0627 7.74303 30.3643 8.04409 30.7272 8.25345C31.0901 8.46282 31.5016 8.57314 31.9206 8.57335C32.3395 8.57357 32.7512 8.46368 33.1143 8.25469C34.2118 7.6226 35.5153 7.4518 36.7386 7.77978C37.962 8.10775 39.0052 8.90771 39.6393 10.0041L41.8949 13.9078C43.214 16.1944 42.4293 19.1138 40.1456 20.4328C39.7823 20.6427 39.4807 20.9444 39.271 21.3078C39.0612 21.6711 38.9508 22.0833 38.9508 22.5028C38.9508 22.9223 39.0612 23.3345 39.271 23.6978C39.4807 24.0612 39.7823 24.3629 40.1456 24.5728C41.2419 25.2069 42.0419 26.2502 42.3698 27.4735C42.6978 28.6968 42.527 30.0003 41.8949 31.0978L39.6393 35.0016C39.0052 36.0979 37.962 36.8979 36.7386 37.2259C35.5153 37.5538 34.2118 37.383 33.1143 36.7509C32.7512 36.542 32.3395 36.4321 31.9206 36.4323C31.5016 36.4325 31.0901 36.5428 30.7272 36.7522C30.3643 36.9615 30.0627 37.2626 29.8528 37.6252C29.6429 37.9878 29.532 38.3992 29.5312 38.8181C29.5312 41.4591 27.3937 43.5994 24.7527 43.5994H20.2499C18.9824 43.5986 17.7669 43.0946 16.8709 42.198C15.9748 41.3014 15.4715 40.0857 15.4715 38.8181C15.4707 38.3992 15.3597 37.9878 15.1498 37.6252C14.9399 37.2626 14.6384 36.9615 14.2755 36.7522C13.9126 36.5428 13.5011 36.4325 13.0821 36.4323C12.6632 36.4321 12.2515 36.542 11.8884 36.7509C10.7908 37.383 9.48737 37.5538 8.26404 37.2259C7.04071 36.8979 5.9975 36.0979 5.36337 35.0016L3.10775 31.0978C2.47566 30.0003 2.30486 28.6968 2.63283 27.4735C2.96081 26.2502 3.76077 25.2069 4.85712 24.5728C5.21972 24.3628 5.52074 24.0611 5.73 23.698C5.93926 23.335 6.04941 22.9233 6.04941 22.5042C6.04941 22.0852 5.93926 21.6735 5.73 21.3104C5.52074 20.9474 5.21972 20.6457 4.85712 20.4356C3.76077 19.8015 2.96081 18.7583 2.63283 17.535C2.30486 16.3116 2.47566 15.0082 3.10775 13.9106L5.36056 10.0041C5.99468 8.90771 7.0379 8.10775 8.26123 7.77978C9.48455 7.4518 10.788 7.6226 11.8856 8.25469C12.2487 8.46368 12.6603 8.57357 13.0793 8.57335C13.4983 8.57314 13.9098 8.46282 14.2727 8.25345C14.6356 8.04409 14.9371 7.74303 15.147 7.38044C15.3569 7.01785 15.4678 6.60646 15.4687 6.1875ZM26.7187 22.5C26.7187 23.6189 26.2742 24.6919 25.483 25.4831C24.6919 26.2743 23.6188 26.7188 22.4999 26.7188C21.3811 26.7188 20.308 26.2743 19.5168 25.4831C18.7257 24.6919 18.2812 23.6189 18.2812 22.5C18.2812 21.3811 18.7257 20.3081 19.5168 19.5169C20.308 18.7257 21.3811 18.2813 22.4999 18.2813C23.6188 18.2813 24.6919 18.7257 25.483 19.5169C26.2742 20.3081 26.7187 21.3811 26.7187 22.5ZM30.9374 22.5C30.9374 24.7378 30.0485 26.8839 28.4662 28.4662C26.8838 30.0486 24.7377 30.9375 22.4999 30.9375C20.2622 30.9375 18.1161 30.0486 16.5337 28.4662C14.9514 26.8839 14.0624 24.7378 14.0624 22.5C14.0624 20.2622 14.9514 18.1161 16.5337 16.5338C18.1161 14.9514 20.2622 14.0625 22.4999 14.0625C24.7377 14.0625 26.8838 14.9514 28.4662 16.5338C30.0485 18.1161 30.9374 20.2622 30.9374 22.5Z" fill="#2F2F2F"/>
</svg>
