<svg width="487" height="486" viewBox="0 0 487 486" fill="none" xmlns="http://www.w3.org/2000/svg">
<path d="M328.681 224.649L197.726 159.152C194.024 157.3 189.91 156.425 185.775 156.61C181.639 156.796 177.62 158.037 174.099 160.214C170.578 162.391 167.672 165.432 165.658 169.049C163.644 172.665 162.588 176.737 162.591 180.877V304.589C162.588 308.729 163.644 312.801 165.658 316.417C167.672 320.034 170.578 323.075 174.099 325.252C177.62 327.429 181.639 328.67 185.775 328.856C189.91 329.042 194.024 328.167 197.726 326.314L328.681 260.817C332.036 259.135 334.858 256.553 336.829 253.359C338.801 250.166 339.845 246.486 339.845 242.733C339.845 238.98 338.801 235.301 336.829 232.107C334.858 228.913 332.036 226.331 328.681 224.649Z" stroke="#2F2F2F" stroke-width="31.3531" stroke-linecap="round" stroke-linejoin="round"/>
<path d="M243.502 424.783C344.045 424.783 425.552 343.276 425.552 242.733C425.552 142.19 344.045 60.6833 243.502 60.6833C142.959 60.6833 61.4521 142.19 61.4521 242.733C61.4521 343.276 142.959 424.783 243.502 424.783Z" stroke="#2F2F2F" stroke-width="31.3531"/>
</svg>
